<svg width="141" height="45" viewBox="0 0 141 45" fill="none" xmlns="http://www.w3.org/2000/svg">
<path d="M0.5 22.5C0.5 10.3497 10.3497 0.5 22.5 0.5H118.5C130.65 0.5 140.5 10.3497 140.5 22.5C140.5 34.6503 130.65 44.5 118.5 44.5H22.5C10.3497 44.5 0.5 34.6503 0.5 22.5Z" stroke="#B99BB6"/>
<path d="M35.9385 26.1567V27H32.0283V26.1567H35.9385ZM32.2324 19.1797V27H31.1958V19.1797H32.2324ZM43.5938 26.1567V27H39.4526V26.1567H43.5938ZM39.6621 19.1797V27H38.6255V19.1797H39.6621ZM43.0459 22.542V23.3853H39.4526V22.542H43.0459ZM43.54 19.1797V20.0283H39.4526V19.1797H43.54ZM49.2725 19.8726L46.6836 27H45.6255L48.6064 19.1797H49.2886L49.2725 19.8726ZM51.4424 27L48.8481 19.8726L48.832 19.1797H49.5142L52.5059 27H51.4424ZM51.3081 24.105V24.9536H46.9146V24.105H51.3081ZM55.0532 19.1797H57.6421C58.2293 19.1797 58.7253 19.2692 59.1299 19.4482C59.5381 19.6273 59.8478 19.8923 60.0591 20.2432C60.2739 20.5905 60.3813 21.0184 60.3813 21.5269C60.3813 21.8849 60.3079 22.2126 60.1611 22.5098C60.0179 22.8034 59.8102 23.054 59.5381 23.2617C59.2695 23.4658 58.9473 23.618 58.5713 23.7183L58.2812 23.8311H55.8481L55.8374 22.9878H57.6743C58.0467 22.9878 58.3564 22.9233 58.6035 22.7944C58.8506 22.6619 59.0368 22.4847 59.1621 22.2627C59.2874 22.0407 59.3501 21.7954 59.3501 21.5269C59.3501 21.2261 59.291 20.9629 59.1729 20.7373C59.0547 20.5117 58.8685 20.3381 58.6143 20.2163C58.3636 20.091 58.0396 20.0283 57.6421 20.0283H56.0898V27H55.0532V19.1797ZM59.624 27L57.7227 23.4551L58.8022 23.4497L60.7305 26.9355V27H59.624ZM69.3472 19.1797V27H68.3052L64.3682 20.9683V27H63.3315V19.1797H64.3682L68.3213 25.2275V19.1797H69.3472ZM77.2402 19.1797H78.2446L80.8066 25.5552L83.3633 19.1797H84.373L81.1934 27H80.4092L77.2402 19.1797ZM76.9126 19.1797H77.7988L77.9438 23.9492V27H76.9126V19.1797ZM83.8091 19.1797H84.6953V27H83.6641V23.9492L83.8091 19.1797ZM94.0371 22.8428V23.3369C94.0371 23.9242 93.9637 24.4505 93.8169 24.916C93.6701 25.3815 93.4588 25.7772 93.1831 26.103C92.9074 26.4289 92.5762 26.6777 92.1895 26.8496C91.8063 27.0215 91.3766 27.1074 90.9004 27.1074C90.4385 27.1074 90.0142 27.0215 89.6274 26.8496C89.2443 26.6777 88.9113 26.4289 88.6284 26.103C88.3491 25.7772 88.1325 25.3815 87.9785 24.916C87.8245 24.4505 87.7476 23.9242 87.7476 23.3369V22.8428C87.7476 22.2555 87.8228 21.731 87.9731 21.269C88.1271 20.8035 88.3438 20.4079 88.623 20.082C88.9023 19.7526 89.2336 19.502 89.6167 19.3301C90.0034 19.1582 90.4277 19.0723 90.8896 19.0723C91.3659 19.0723 91.7956 19.1582 92.1787 19.3301C92.5654 19.502 92.8966 19.7526 93.1724 20.082C93.4517 20.4079 93.6647 20.8035 93.8115 21.269C93.9619 21.731 94.0371 22.2555 94.0371 22.8428ZM93.0112 23.3369V22.832C93.0112 22.3665 92.9629 21.9548 92.8662 21.5967C92.7731 21.2386 92.6353 20.9378 92.4526 20.6943C92.27 20.4508 92.0462 20.2664 91.7812 20.1411C91.5199 20.0158 91.2227 19.9531 90.8896 19.9531C90.5674 19.9531 90.2756 20.0158 90.0142 20.1411C89.7563 20.2664 89.5343 20.4508 89.3481 20.6943C89.1655 20.9378 89.0241 21.2386 88.9238 21.5967C88.8236 21.9548 88.7734 22.3665 88.7734 22.832V23.3369C88.7734 23.806 88.8236 24.2214 88.9238 24.583C89.0241 24.9411 89.1673 25.2437 89.3535 25.4907C89.5433 25.7342 89.7671 25.9186 90.0249 26.0439C90.2863 26.1693 90.5781 26.2319 90.9004 26.2319C91.237 26.2319 91.536 26.1693 91.7974 26.0439C92.0588 25.9186 92.279 25.7342 92.458 25.4907C92.6406 25.2437 92.7785 24.9411 92.8716 24.583C92.9647 24.2214 93.0112 23.806 93.0112 23.3369ZM97.0894 19.1797H99.6782C100.265 19.1797 100.761 19.2692 101.166 19.4482C101.574 19.6273 101.884 19.8923 102.095 20.2432C102.31 20.5905 102.417 21.0184 102.417 21.5269C102.417 21.8849 102.344 22.2126 102.197 22.5098C102.054 22.8034 101.846 23.054 101.574 23.2617C101.306 23.4658 100.983 23.618 100.607 23.7183L100.317 23.8311H97.8843L97.8735 22.9878H99.7104C100.083 22.9878 100.393 22.9233 100.64 22.7944C100.887 22.6619 101.073 22.4847 101.198 22.2627C101.324 22.0407 101.386 21.7954 101.386 21.5269C101.386 21.2261 101.327 20.9629 101.209 20.7373C101.091 20.5117 100.905 20.3381 100.65 20.2163C100.4 20.091 100.076 20.0283 99.6782 20.0283H98.126V27H97.0894V19.1797ZM101.66 27L99.7588 23.4551L100.838 23.4497L102.767 26.9355V27H101.66ZM110.336 26.1567V27H106.195V26.1567H110.336ZM106.404 19.1797V27H105.368V19.1797H106.404ZM109.788 22.542V23.3853H106.195V22.542H109.788ZM110.282 19.1797V20.0283H106.195V19.1797H110.282Z" fill="#B99BB6"/>
</svg>
